<?xml version="1.0" encoding="UTF-8" standalone="no"?>
<!DOCTYPE svg PUBLIC "-//W3C//DTD SVG 1.1//EN" "http://www.w3.org/Graphics/SVG/1.1/DTD/svg11.dtd">
<!-- Created with Vectornator (http://vectornator.io/) -->
<svg height="100%" stroke-miterlimit="10" style="fill-rule:nonzero;clip-rule:evenodd;stroke-linecap:round;stroke-linejoin:round;" version="1.1" viewBox="0 0 400 400" width="100%" xml:space="preserve" xmlns="http://www.w3.org/2000/svg" xmlns:vectornator="http://vectornator.io" xmlns:xlink="http://www.w3.org/1999/xlink">
<defs/>
<g id="图层-7" vectornator:layerName="图层 7"/>
<g id="图层-8" vectornator:layerName="图层 8">
<path d="M200.239 262.917C182.199 264.745 191.884 277.576 189.476 279.079C184.488 282.193 191.946 286.837 188.501 286.017C185.057 285.197 182.153 277.883 177.889 274.767C173.624 271.65 170.945 266.667 167.501 266.667C164.056 266.667 162.1 271.589 159.476 271.917C156.851 272.245 152.037 277.119 154.038 283.579C157.647 295.225 169.625 287.344 173.726 289.804C177.827 292.265 188.998 297.999 186.701 301.28C184.405 304.56 194.576 311.442 194.576 311.442C194.576 311.442 194.717 318.18 194.389 323.592C194.061 329.005 200.239 331.955 200.239 331.955C200.239 331.955 206.417 329.005 206.089 323.592C205.761 318.18 205.939 311.442 205.939 311.442C205.939 311.442 216.11 304.56 213.814 301.28C211.518 297.999 222.689 292.265 226.789 289.804C230.89 287.344 242.831 295.225 246.439 283.579C248.441 277.119 243.664 272.245 241.039 271.917C238.415 271.589 236.459 266.667 233.014 266.667C229.57 266.667 226.891 271.65 222.627 274.767C218.362 277.883 215.458 285.197 212.014 286.017C208.569 286.837 216.027 282.193 211.039 279.079C208.631 277.576 218.278 264.745 200.239 262.917Z" fill="#c6c82b" fill-rule="nonzero" opacity="1" stroke="none"/>
<path d="M237.802 275.755C237.802 275.755 244.195 282.859 244.728 286.411C245.261 289.963 241.713 310.935 237.047 316.093C237.047 316.093 234.731 294.581 231.086 285.605C229.411 281.477 237.775 275.801 237.802 275.755Z" fill="#e4eff5" fill-rule="nonzero" opacity="1" stroke="none"/>
<path d="M162.703 275.755C162.703 275.755 156.309 282.859 155.776 286.411C155.243 289.963 158.792 310.935 163.457 316.093C163.457 316.093 165.774 294.581 169.418 285.605C171.094 281.477 162.729 275.801 162.703 275.755Z" fill="#e4eff5" fill-rule="nonzero" opacity="1" stroke="none"/>
<path d="M200.198 351.792C200.198 351.792 204.897 343.644 206.68 327.468C206.773 326.627 206.718 325.324 206.06 324.742C206.06 324.742 204.449 328.231 200.264 328.154C195.695 328.07 194.45 324.996 194.45 324.996C194.45 324.996 193.597 326.528 193.765 327.83C194.428 332.974 197.376 345.408 200.198 351.792Z" fill="#e4eff5" fill-rule="nonzero" opacity="1" stroke="none"/>
<path d="M200.276 308.376C200.276 308.376 190.811 285.87 192.513 281.983C194.216 278.096 196.315 271.083 200.106 270.89C203.896 270.697 207.964 281.648 207.964 281.648C209.498 285.834 203.007 303.08 200.276 308.376Z" fill="#e4eff5" fill-rule="nonzero" opacity="1" stroke="none"/>
<path d="M295.755 307.354C295.755 307.354 307.478 283.747 316.945 281.583C316.945 281.583 309.111 283.09 307.641 285.784C307.641 285.784 332.168 244.929 339.798 241.361C355.795 233.88 356.819 177.283 356.875 169.152C356.875 169.152 352.21 180.594 346.486 187.21C346.486 187.21 348.319 158.788 344.273 149.195C340.356 139.907 337.238 129.986 333.279 126.901C333.279 126.901 337.686 147.668 336.756 152.428C335.825 157.189 319.863 82.0113 282.77 65.0948C282.77 65.0948 296.307 87.4997 296.669 94.307C296.669 94.307 293.49 87.5348 288.193 84.9455C288.193 84.9455 303.07 118.727 304.349 126.885C304.349 126.885 300.488 119.036 292.182 114.037C292.182 114.037 308.045 141.756 306.49 148.541C306.49 148.541 298.988 128.384 291.365 124.461C291.365 124.461 301.106 151.956 300.843 158.587C300.843 158.587 300.05 152.385 295.732 148.722C295.732 148.722 296.856 164.976 300.557 172.851C300.557 172.851 298.657 179.237 298.65 183.787C298.65 183.787 296.412 182.506 295.859 176.217C295.859 176.217 291.976 209.404 293.466 215.706C293.466 215.706 275.654 247.135 280.941 257.118C286.227 267.101 288.331 296.704 295.755 307.354Z" fill="#68c40c" fill-rule="nonzero" opacity="1" stroke="#68c40c" stroke-linecap="butt" stroke-linejoin="round" stroke-width="2"/>
<path d="M104.21 307.354C104.21 307.354 92.487 283.747 83.0193 281.583C83.0193 281.583 90.854 283.09 92.3241 285.784C92.3241 285.784 67.7969 244.929 60.1666 241.361C44.1697 233.88 43.1455 177.283 43.0897 169.152C43.0897 169.152 47.755 180.594 53.4783 187.21C53.4783 187.21 51.6459 158.788 55.6917 149.195C59.609 139.907 62.7264 129.986 66.6861 126.901C66.6861 126.901 62.2783 147.668 63.2089 152.428C64.1394 157.189 80.1014 82.0113 117.194 65.0948C117.194 65.0948 103.658 87.4997 103.296 94.307C103.296 94.307 106.475 87.5348 111.772 84.9455C111.772 84.9455 96.8948 118.727 95.6153 126.885C95.6153 126.885 99.4771 119.036 107.783 114.037C107.783 114.037 91.9197 141.756 93.4744 148.541C93.4744 148.541 100.977 128.384 108.6 124.461C108.6 124.461 98.8582 151.956 99.1218 158.587C99.1218 158.587 99.915 152.385 104.233 148.722C104.233 148.722 103.108 164.976 99.4074 172.851C99.4074 172.851 101.308 179.237 101.314 183.787C101.314 183.787 103.552 182.506 104.105 176.217C104.105 176.217 107.989 209.404 106.499 215.706C106.499 215.706 124.31 247.135 119.024 257.118C113.738 267.101 111.634 296.704 104.21 307.354Z" fill="#68c40c" fill-rule="nonzero" opacity="1" stroke="#68c40c" stroke-linecap="butt" stroke-linejoin="round" stroke-width="2"/>
<g opacity="1">
<path d="M197.613 89.2506C197.613 89.2506 202.982 86.1423 203.798 85.5458C204.614 84.9493 207.346 80.6794 207.785 80.1456C208.225 79.6119 209.041 81.2131 211.898 78.3247C214.755 75.4362 213.185 73.2385 214.127 71.2919C214.127 71.2919 217.434 69.1369 217.937 68.2975C217.937 68.2975 220.739 85.9954 229.141 95.7173C243.561 112.403 261.712 145.851 241.477 166.065C241.477 166.065 252.038 144.051 243.236 129.429C243.236 129.429 253.76 161.865 227.068 180.034C227.068 180.034 238.303 171.875 241.093 146.708C241.093 146.708 235.505 171.949 225.618 177.369C225.618 177.369 236.536 160.025 234.962 150.504C234.295 146.469 236.894 158.374 220.221 182.471C220.221 182.471 229.15 166.092 228.163 154.967C228.163 154.967 221.803 178.808 213.574 187.21C213.185 187.607 222.517 169.8 221.476 160.641C221.302 159.105 217.936 191.421 201.485 191.928C200.932 191.945 205.769 190.232 207.747 184.75C207.874 184.397 205.982 191.126 197.433 192.143C195.87 192.328 192.069 182.652 192.069 182.652C192.069 182.652 196.126 192.223 195.017 192.359C195.017 192.359 183.603 190.777 181.316 180.061C180.994 178.549 182.83 189.377 182.83 189.377C182.83 189.377 175.992 187.961 173.004 175.687C172.99 175.628 174.954 185.715 174.954 185.715C174.954 185.715 164.527 183.636 166.313 167.09C166.49 165.448 167.986 183.071 167.986 183.071C167.986 183.071 157.571 172.607 164.727 142.161C164.727 142.161 157.232 165.665 163.406 181.034C163.406 181.034 146.091 175.085 167.751 124.172C167.751 124.172 157.137 133.243 154.166 171.87C154.166 171.87 146.126 155.365 159.369 128.389C159.369 128.389 153.634 134.444 150.272 152.365C150.272 152.365 147.527 136.846 159.15 124.682C165.769 117.755 170.991 108.572 173.831 102.183C176.67 95.7931 181.18 84.3882 181.88 75.2328C181.88 75.2328 185.937 79.8675 186.562 81.3299C186.946 82.2264 187.445 81.3128 188.565 82.0375" fill="#d32297" fill-rule="nonzero" opacity="1" stroke="#d32297" stroke-linecap="butt" stroke-linejoin="round" stroke-width="0.1"/>
<path d="M178.281 59.1766C178.281 59.1766 180.564 53.0873 182.358 51.2931C184.152 49.499 189.752 42.7572 197.527 42.3766C205.302 41.9961 215.795 47.9766 216.448 56.2951C217.1 64.6135 215.934 64.2873 215.08 64.7896C214.226 65.2918 209.103 66.3968 208.802 67.6524C208.802 67.6524 207.747 76.3916 204.181 77.8984C204.181 77.8984 207.194 73.6292 207.044 61.9267C207.044 61.9267 205.085 66.0954 202.574 66.899C202.574 66.899 203.377 67.3511 202.775 64.0362C202.775 64.0362 202.172 66.4972 199.912 67.7529C199.912 67.7529 199.962 66.899 199.711 65.3923C199.711 65.3923 198.606 68.8076 197.3 69.561C197.3 69.561 198.254 63.6344 197.2 61.5752C197.2 61.5752 197.501 67.3511 196.346 69.2596C195.191 71.1682 195.09 71.4696 195.191 73.127C195.191 73.127 191.374 69.9628 191.072 67.2004C191.072 67.2004 189.967 68.2551 190.62 69.6614C190.62 69.6614 187.707 68.7072 186.853 66.3466C186.853 66.3466 186.721 68.516 187.456 69.0902C187.456 69.0902 185.228 67.3677 184.93 66.2424C184.93 66.2424 183.942 69.4806 185.205 71.0193C185.205 71.0193 180.295 68.992 179.596 66.895C178.897 64.798 177.998 60.3325 178.281 59.1766Z" fill="#d32297" fill-rule="nonzero" opacity="1" stroke="#d32297" stroke-linecap="butt" stroke-linejoin="round" stroke-width="0.1"/>
</g>
<path d="M202.108 190.619L213.475 207.573C216.626 212.26 218.963 215.222 220.487 216.459C222.01 217.696 223.944 218.38 226.287 218.51L226.287 219.955L203.553 219.955L203.553 218.51C205.063 218.484 206.183 218.328 206.912 218.041C207.459 217.807 207.908 217.449 208.26 216.967C208.612 216.485 208.787 215.997 208.787 215.502C208.787 214.903 208.67 214.304 208.436 213.705C208.254 213.263 207.537 212.117 206.287 210.268L197.303 196.674L186.209 210.893C185.037 212.403 184.334 213.412 184.1 213.92C183.865 214.428 183.748 214.955 183.748 215.502C183.748 216.336 184.1 217.026 184.803 217.573C185.506 218.119 186.847 218.432 188.826 218.51L188.826 219.955L170.037 219.955L170.037 218.51C171.365 218.38 172.511 218.106 173.475 217.69C175.089 217.013 176.626 216.101 178.084 214.955C179.543 213.809 181.209 212.052 183.084 209.682L195.584 193.901L185.155 178.627C182.316 174.487 179.907 171.772 177.928 170.483C175.949 169.194 173.67 168.51 171.092 168.432L171.092 166.987L195.584 166.987L195.584 168.432C193.501 168.51 192.075 168.849 191.307 169.448C190.539 170.046 190.155 170.711 190.155 171.44C190.155 172.403 190.78 173.809 192.03 175.658L200.155 187.807L209.569 175.893C210.662 174.487 211.333 173.523 211.58 173.002C211.828 172.481 211.951 171.948 211.951 171.401C211.951 170.854 211.795 170.372 211.483 169.955C211.092 169.408 210.597 169.024 209.998 168.803C209.399 168.582 208.162 168.458 206.287 168.432L206.287 166.987L225.076 166.987L225.076 168.432C223.592 168.51 222.381 168.744 221.444 169.135C220.037 169.734 218.748 170.541 217.576 171.557C216.405 172.573 214.751 174.448 212.615 177.182L202.108 190.619Z" fill="#ffffff" opacity="1" stroke="none"/>
<path d="M200.031 97.2812C194.774 97.2812 190.531 101.555 190.531 106.812C190.531 109.508 191.669 111.924 193.469 113.656L126.344 229.875C125.44 229.59 124.498 229.406 123.5 229.406C118.242 229.406 113.969 233.68 113.969 238.938C113.969 244.195 118.242 248.437 123.5 248.438C128.106 248.437 131.931 245.19 132.812 240.844L267.719 240.844C268.675 245.091 272.464 248.25 277 248.25C282.258 248.25 286.5 244.008 286.5 238.75C286.5 233.492 282.258 229.219 277 229.219C275.98 229.219 275.015 229.422 274.094 229.719L206.906 113.375C208.544 111.665 209.563 109.367 209.562 106.812C209.563 101.555 205.289 97.2812 200.031 97.2812ZM194.344 101.469L199.438 101.469L199.438 101.75L199.25 101.75C198.792 101.75 198.479 101.823 198.312 101.938C198.193 102.016 198.125 102.13 198.125 102.281C198.125 102.375 198.146 102.466 198.188 102.594C198.229 102.721 198.385 103.068 198.625 103.625L200.875 108.906L202.969 104.219C203.219 103.651 203.38 103.255 203.438 103.062C203.495 102.87 203.531 102.698 203.531 102.562C203.531 102.406 203.49 102.276 203.406 102.156C203.323 102.036 203.193 101.938 203.031 101.875C202.807 101.786 202.495 101.75 202.125 101.75L202.125 101.469L205.625 101.469L205.625 101.75C205.24 101.813 204.896 102.026 204.594 102.375C204.375 102.635 204.026 103.255 203.594 104.219L199.969 112.312L199.688 112.312L196.062 103.875C195.625 102.859 195.336 102.271 195.188 102.094C195.039 101.917 194.755 101.797 194.344 101.75L194.344 101.469ZM204.375 115.219L271.312 231.156C269.257 232.698 267.854 235.029 267.562 237.719L132.875 237.719C132.536 235.085 131.162 232.785 129.125 231.281L196.031 115.406C197.252 115.976 198.595 116.312 200.031 116.312C201.605 116.312 203.068 115.894 204.375 115.219ZM274.562 233.281L280.094 233.281L280.094 233.562L279.75 233.562C279.443 233.562 279.188 233.609 279 233.719C278.865 233.792 278.766 233.917 278.688 234.094C278.63 234.219 278.594 234.563 278.594 235.094L278.594 242.062C278.594 242.604 278.628 242.927 278.688 243.062C278.747 243.198 278.857 243.336 279.031 243.438C279.206 243.539 279.453 243.594 279.75 243.594L280.094 243.594L280.094 243.875L274.562 243.875L274.562 243.594L274.906 243.594C275.214 243.594 275.469 243.516 275.656 243.406C275.792 243.333 275.896 243.208 275.969 243.031C276.026 242.906 276.062 242.594 276.062 242.062L276.062 235.094C276.062 234.552 276.026 234.198 275.969 234.062C275.911 233.927 275.799 233.82 275.625 233.719C275.451 233.617 275.203 233.563 274.906 233.562L274.562 233.562L274.562 233.281ZM120.812 233.469L126.344 233.469L126.344 233.75L126 233.75C125.693 233.75 125.437 233.828 125.25 233.938C125.115 234.01 125.016 234.135 124.938 234.312C124.88 234.438 124.844 234.75 124.844 235.281L124.844 242.25C124.844 242.792 124.878 243.146 124.938 243.281C124.997 243.417 125.107 243.523 125.281 243.625C125.456 243.727 125.703 243.781 126 243.781L126.344 243.781L126.344 244.062L120.812 244.062L120.812 243.781L121.156 243.781C121.464 243.781 121.719 243.734 121.906 243.625C122.042 243.552 122.146 243.427 122.219 243.25C122.276 243.125 122.312 242.781 122.312 242.25L122.312 235.281C122.312 234.74 122.276 234.417 122.219 234.281C122.161 234.146 122.049 234.008 121.875 233.906C121.701 233.805 121.453 233.75 121.156 233.75L120.812 233.75L120.812 233.469Z" fill="#ffffff" fill-rule="nonzero" opacity="1" stroke="none" vectornator:layerName="曲线 1"/>
</g>
</svg>
